<svg xmlns="http://www.w3.org/2000/svg" viewBox="0 0 100 100" width="100" height="100">
  <defs>
    <radialGradient id="purpleGradientAI" cx="50%" cy="50%" r="50%">
      <stop offset="0%" style="stop-color:#b77fe8;stop-opacity:1" />
      <stop offset="100%" style="stop-color:#5B4FCF;stop-opacity:1" />
    </radialGradient>
  </defs>
  
  <!-- Background circle -->
  <circle cx="50" cy="50" r="45" fill="url(#purpleGradientAI)"/>
  
  <!-- Person silhouette (left side) -->
  <circle cx="35" cy="42" r="6" fill="#2C2C54"/>
  <path d="M 35 49 Q 28 50 26 56 L 26 65 L 44 65 L 44 56 Q 42 50 35 49 Z" 
        fill="#2C2C54"/>
  
  <!-- Building/Corporation (right side) -->
  <rect x="56" y="38" width="18" height="27" fill="#2C2C54" rx="1"/>
  
  <!-- Building windows -->
  <rect x="59" y="41" width="3" height="3" fill="#5B4FCF"/>
  <rect x="65" y="41" width="3" height="3" fill="#5B4FCF"/>
  <rect x="59" y="46" width="3" height="3" fill="#5B4FCF"/>
  <rect x="65" y="46" width="3" height="3" fill="#5B4FCF"/>
  <rect x="59" y="51" width="3" height="3" fill="#5B4FCF"/>
  <rect x="65" y="51" width="3" height="3" fill="#5B4FCF"/>
  <rect x="59" y="56" width="3" height="3" fill="#5B4FCF"/>
  <rect x="65" y="56" width="3" height="3" fill="#5B4FCF"/>
  
  <!-- Door -->
  <rect x="62" y="60" width="4" height="5" fill="#1A1A3A"/>
  
  <!-- Connecting arrows/lines showing match -->
  <path d="M 44 52 L 52 52 L 56 52" 
        stroke="#6C63FF" 
        stroke-width="2" 
        fill="none" 
        marker-end="url(#arrowhead)"/>
  
  <!-- Arrow marker -->
  <defs>
    <marker id="arrowhead" markerWidth="10" markerHeight="10" refX="8" refY="3" orient="auto">
      <polygon points="0 0, 6 3, 0 6" fill="#6C63FF" />
    </marker>
  </defs>
  
  <!-- Match indicator (checkmark or connection dot) -->
  <circle cx="50" cy="52" r="3" fill="#6C63FF"/>
  <path d="M 48 52 L 49.5 53.5 L 52 50.5" 
        stroke="white" 
        stroke-width="1.5" 
        fill="none" 
        stroke-linecap="round" 
        stroke-linejoin="round"/>
</svg>